<svg width="1440" height="2000" viewBox="0 0 1440 2000" fill="none" xmlns="http://www.w3.org/2000/svg">
<rect width="1440" height="2000" fill="#C8CEFE"/>
<rect x="537" y="70" width="366" height="757" rx="56" fill="white"/>
<g filter="url(#filter0_i_2_2)">
<circle cx="679" cy="774" r="38" fill="white"/>
</g>
<path d="M679.25 789.875C677.115 789.875 675.281 789.219 673.75 787.906C672.219 786.594 671.042 784.714 670.219 782.266C669.406 779.807 669 776.865 669 773.438C669 770.021 669.411 767.083 670.234 764.625C671.057 762.167 672.229 760.281 673.75 758.969C675.281 757.656 677.115 757 679.25 757C681.385 757 683.214 757.656 684.734 758.969C686.266 760.281 687.443 762.167 688.266 764.625C689.089 767.083 689.5 770.021 689.5 773.438C689.5 776.865 689.089 779.807 688.266 782.266C687.453 784.714 686.281 786.594 684.75 787.906C683.219 789.219 681.385 789.875 679.25 789.875ZM679.25 788.063C681.844 788.063 683.88 786.776 685.359 784.203C686.839 781.62 687.578 778.031 687.578 773.438C687.578 770.375 687.24 767.75 686.562 765.563C685.896 763.375 684.943 761.703 683.703 760.547C682.464 759.38 680.979 758.797 679.25 758.797C676.656 758.797 674.62 760.089 673.141 762.672C671.661 765.255 670.922 768.844 670.922 773.438C670.922 776.5 671.255 779.125 671.922 781.313C672.589 783.49 673.542 785.161 674.781 786.328C676.031 787.484 677.521 788.063 679.25 788.063Z" fill="#505050"/>
<g filter="url(#filter1_i_2_2)">
<circle cx="761" cy="774" r="38" fill="white"/>
</g>
<path d="M762.687 790.375C762.219 790.375 761.818 790.214 761.484 789.891C761.161 789.557 761 789.156 761 788.688C761 788.229 761.161 787.833 761.484 787.5C761.818 787.167 762.219 787 762.687 787C763.146 787 763.542 787.167 763.875 787.5C764.208 787.833 764.375 788.229 764.375 788.688C764.375 789 764.297 789.286 764.141 789.547C763.995 789.797 763.792 790 763.531 790.156C763.281 790.302 763 790.375 762.687 790.375Z" fill="#505050"/>
<circle cx="843" cy="774" r="38" fill="#A5C3FF"/>
<path d="M834.438 771.312V768.734H852.234V771.312H834.438ZM834.438 780.266V777.688H852.234V780.266H834.438Z" fill="#D7EAFB"/>
<g filter="url(#filter2_i_2_2)">
<circle cx="597" cy="692" r="38" fill="white"/>
</g>
<path d="M601.313 676V708H599.359V678.062H599.172L591.984 682.828V680.734L599.109 676H601.313Z" fill="#505050"/>
<g filter="url(#filter3_i_2_2)">
<circle cx="679" cy="692" r="38" fill="white"/>
</g>
<path d="M669 708.438V706.953L679.359 695.016C680.839 693.307 682.01 691.859 682.875 690.672C683.74 689.484 684.359 688.411 684.734 687.453C685.109 686.495 685.297 685.495 685.297 684.453C685.297 683.151 684.99 682 684.375 681C683.771 679.99 682.943 679.203 681.891 678.641C680.849 678.078 679.661 677.797 678.328 677.797C676.932 677.797 675.708 678.104 674.656 678.719C673.604 679.333 672.781 680.167 672.188 681.219C671.604 682.271 671.312 683.453 671.312 684.766H669.422C669.422 683.109 669.807 681.62 670.578 680.297C671.349 678.974 672.406 677.927 673.75 677.156C675.104 676.385 676.646 676 678.375 676C680.073 676 681.583 676.37 682.906 677.109C684.229 677.849 685.271 678.859 686.031 680.141C686.792 681.411 687.172 682.849 687.172 684.453C687.172 685.63 686.969 686.766 686.562 687.859C686.167 688.943 685.484 690.156 684.516 691.5C683.547 692.833 682.208 694.479 680.5 696.438L671.813 706.453V706.625H688.609V708.438H669Z" fill="#505050"/>
<g filter="url(#filter4_i_2_2)">
<circle cx="761" cy="692" r="38" fill="white"/>
</g>
<path d="M760.969 708.875C759.073 708.875 757.38 708.516 755.891 707.797C754.401 707.068 753.219 706.073 752.344 704.813C751.479 703.542 751.031 702.083 751 700.438H752.984C753.016 701.74 753.385 702.891 754.094 703.891C754.802 704.88 755.75 705.656 756.938 706.219C758.135 706.781 759.469 707.063 760.938 707.063C762.531 707.063 763.927 706.75 765.125 706.125C766.333 705.5 767.276 704.656 767.953 703.594C768.63 702.521 768.969 701.323 768.969 700C768.969 698.583 768.599 697.344 767.859 696.281C767.12 695.208 766.089 694.375 764.766 693.781C763.443 693.177 761.906 692.875 760.156 692.875H758.969V691.063H760.156C761.646 691.063 762.979 690.792 764.156 690.25C765.333 689.698 766.26 688.922 766.938 687.922C767.625 686.922 767.969 685.74 767.969 684.375C767.969 683.094 767.672 681.958 767.078 680.969C766.484 679.979 765.661 679.203 764.609 678.641C763.568 678.078 762.344 677.797 760.938 677.797C759.583 677.797 758.354 678.073 757.25 678.625C756.156 679.177 755.286 679.953 754.641 680.953C753.995 681.953 753.667 683.115 753.656 684.438H751.734C751.755 682.781 752.172 681.318 752.984 680.047C753.807 678.776 754.906 677.786 756.281 677.078C757.667 676.359 759.229 676 760.969 676C762.74 676 764.292 676.37 765.625 677.109C766.969 677.849 768.01 678.849 768.75 680.109C769.5 681.37 769.875 682.771 769.875 684.312C769.875 686.167 769.359 687.755 768.328 689.078C767.307 690.391 765.922 691.302 764.172 691.813V691.984C766.245 692.443 767.885 693.385 769.094 694.813C770.302 696.24 770.906 697.969 770.906 700C770.906 701.667 770.479 703.172 769.625 704.516C768.771 705.859 767.594 706.922 766.094 707.703C764.604 708.484 762.896 708.875 760.969 708.875Z" fill="#505050"/>
<circle cx="843" cy="692" r="38" fill="#EFF3FF"/>
<path d="M842.562 701.969V683H844.391V701.969H842.562ZM834 693.406V691.562H852.953V693.406H834Z" fill="#BBCCEE"/>
<g filter="url(#filter5_i_2_2)">
<circle cx="597" cy="610" r="38" fill="white"/>
</g>
<path d="M586 618.812V617.25L600.484 594H601.672V597.016H600.656L588.359 616.828V617H606.844V618.812H586ZM600.812 626V594H602.719V626H600.812Z" fill="#505050"/>
<g filter="url(#filter6_i_2_2)">
<circle cx="679" cy="610" r="38" fill="white"/>
</g>
<path d="M678.938 626.438C677.229 626.438 675.703 626.078 674.359 625.359C673.026 624.63 671.969 623.63 671.188 622.359C670.417 621.089 670.021 619.635 670 618H671.922C671.964 619.938 672.635 621.526 673.938 622.766C675.24 624.005 676.906 624.625 678.938 624.625C680.5 624.625 681.875 624.25 683.062 623.5C684.26 622.74 685.198 621.708 685.875 620.406C686.552 619.104 686.885 617.635 686.875 616C686.875 614.271 686.51 612.76 685.781 611.469C685.052 610.177 684.078 609.177 682.859 608.469C681.641 607.76 680.292 607.401 678.812 607.391C677.646 607.391 676.552 607.604 675.531 608.031C674.51 608.448 673.641 608.984 672.922 609.641L670.719 609.328L672.609 594H687.609V595.813H674.281L672.813 607.797H672.969C673.719 607.13 674.609 606.594 675.641 606.188C676.682 605.771 677.813 605.562 679.031 605.562C680.823 605.562 682.458 606 683.938 606.875C685.427 607.75 686.609 608.969 687.484 610.531C688.37 612.094 688.807 613.911 688.797 615.984C688.786 617.984 688.359 619.771 687.516 621.344C686.672 622.917 685.505 624.161 684.016 625.078C682.536 625.984 680.844 626.438 678.938 626.438Z" fill="#505050"/>
<g filter="url(#filter7_i_2_2)">
<circle cx="761" cy="610" r="38" fill="white"/>
</g>
<path d="M761.047 625.875C759.703 625.865 758.427 625.578 757.219 625.016C756.01 624.443 754.938 623.557 754 622.359C753.073 621.151 752.339 619.599 751.797 617.703C751.266 615.797 751 613.516 751 610.859C751 608.474 751.188 606.208 751.563 604.063C751.948 601.917 752.552 600.016 753.375 598.359C754.198 596.693 755.271 595.385 756.594 594.437C757.927 593.479 759.536 593 761.422 593C763.068 593 764.516 593.359 765.766 594.078C767.026 594.786 768.031 595.776 768.781 597.047C769.531 598.307 769.984 599.771 770.141 601.438H768.203C767.984 599.49 767.286 597.901 766.109 596.672C764.943 595.432 763.38 594.813 761.422 594.813C758.651 594.813 756.531 596.167 755.062 598.875C753.604 601.583 752.875 605.458 752.875 610.5H753.047C753.464 609.5 754.078 608.62 754.891 607.859C755.714 607.089 756.661 606.49 757.734 606.062C758.807 605.635 759.938 605.422 761.125 605.422C762.854 605.422 764.432 605.865 765.859 606.75C767.297 607.635 768.448 608.849 769.312 610.391C770.177 611.932 770.609 613.677 770.609 615.625C770.609 617.469 770.208 619.172 769.406 620.734C768.604 622.286 767.484 623.536 766.047 624.484C764.62 625.422 762.953 625.885 761.047 625.875ZM761.047 624.063C762.505 624.063 763.807 623.682 764.953 622.922C766.109 622.161 767.021 621.146 767.688 619.875C768.354 618.594 768.688 617.177 768.688 615.625C768.688 614.062 768.344 612.646 767.656 611.375C766.969 610.104 766.036 609.099 764.859 608.359C763.693 607.609 762.38 607.234 760.922 607.234C759.776 607.234 758.714 607.469 757.734 607.938C756.755 608.396 755.911 609.031 755.203 609.844C754.505 610.656 753.99 611.589 753.656 612.641C753.333 613.682 753.245 614.781 753.391 615.938C753.63 617.615 754.099 619.063 754.797 620.281C755.505 621.49 756.391 622.422 757.453 623.078C758.526 623.734 759.724 624.063 761.047 624.063Z" fill="#505050"/>
<circle cx="843" cy="610" r="38" fill="#EFF3FF"/>
<path d="M849.625 609V610.813H837V609H849.625Z" fill="#BBCCEE"/>
<g filter="url(#filter8_i_2_2)">
<circle cx="597" cy="528" r="38" fill="white"/>
</g>
<path d="M590.219 544L605.078 513.984V513.813H588V512H607.203V513.875L592.328 544H590.219Z" fill="#505050"/>
<g filter="url(#filter9_i_2_2)">
<circle cx="679" cy="528" r="38" fill="white"/>
</g>
<path d="M679.25 543.875C677.313 543.875 675.568 543.49 674.016 542.719C672.464 541.938 671.235 540.885 670.328 539.562C669.433 538.24 668.99 536.755 669 535.109C668.99 533.807 669.266 532.583 669.828 531.438C670.401 530.292 671.183 529.318 672.172 528.516C673.162 527.703 674.292 527.161 675.563 526.891V526.75C673.948 526.24 672.63 525.297 671.61 523.922C670.599 522.547 670.094 520.99 670.094 519.25C670.094 517.698 670.495 516.302 671.297 515.063C672.11 513.813 673.209 512.823 674.594 512.094C675.979 511.365 677.532 511 679.25 511C680.938 511 682.474 511.365 683.86 512.094C685.245 512.813 686.344 513.797 687.157 515.047C687.979 516.286 688.391 517.687 688.391 519.25C688.391 520.979 687.886 522.536 686.875 523.922C685.875 525.297 684.563 526.24 682.938 526.75V526.891C684.198 527.151 685.318 527.688 686.297 528.5C687.287 529.302 688.063 530.281 688.625 531.438C689.198 532.583 689.49 533.807 689.5 535.109C689.49 536.755 689.032 538.24 688.125 539.562C687.229 540.885 686.005 541.938 684.453 542.719C682.912 543.49 681.177 543.875 679.25 543.875ZM679.25 542.063C680.844 542.063 682.266 541.75 683.516 541.125C684.766 540.5 685.75 539.656 686.469 538.594C687.188 537.521 687.552 536.323 687.563 535C687.552 533.656 687.177 532.438 686.438 531.344C685.709 530.25 684.719 529.38 683.469 528.734C682.219 528.089 680.813 527.766 679.25 527.766C677.677 527.766 676.261 528.089 675 528.734C673.75 529.38 672.755 530.25 672.016 531.344C671.287 532.438 670.927 533.656 670.938 535C670.927 536.323 671.282 537.521 672 538.594C672.729 539.656 673.719 540.5 674.969 541.125C676.229 541.75 677.657 542.063 679.25 542.063ZM679.25 526.078C680.594 526.078 681.808 525.776 682.891 525.172C683.985 524.568 684.854 523.755 685.5 522.734C686.146 521.714 686.469 520.578 686.469 519.328C686.469 518.078 686.146 516.964 685.5 515.984C684.865 514.995 684 514.219 682.907 513.656C681.823 513.083 680.604 512.797 679.25 512.797C677.886 512.797 676.657 513.083 675.563 513.656C674.469 514.219 673.604 514.995 672.969 515.984C672.334 516.964 672.016 518.078 672.016 519.328C672.016 520.578 672.334 521.714 672.969 522.734C673.615 523.755 674.485 524.568 675.578 525.172C676.672 525.776 677.896 526.078 679.25 526.078Z" fill="#505050"/>
<g filter="url(#filter10_i_2_2)">
<circle cx="761" cy="528" r="38" fill="white"/>
</g>
<path d="M760.563 511C761.906 511 763.182 511.287 764.391 511.86C765.599 512.432 766.667 513.318 767.594 514.516C768.531 515.703 769.266 517.245 769.797 519.141C770.339 521.026 770.609 523.297 770.609 525.953C770.609 528.339 770.417 530.61 770.031 532.766C769.656 534.912 769.057 536.823 768.234 538.5C767.411 540.167 766.339 541.479 765.016 542.438C763.693 543.396 762.083 543.875 760.188 543.875C758.531 543.875 757.078 543.516 755.828 542.797C754.578 542.078 753.573 541.084 752.812 539.813C752.062 538.531 751.609 537.052 751.453 535.375H753.391C753.609 537.323 754.307 538.927 755.484 540.188C756.661 541.438 758.229 542.063 760.188 542.063C762.948 542.063 765.063 540.703 766.531 537.985C768 535.266 768.734 531.375 768.734 526.313H768.562C768.146 527.313 767.526 528.198 766.703 528.969C765.891 529.729 764.948 530.323 763.875 530.75C762.802 531.177 761.672 531.391 760.484 531.391C758.745 531.391 757.156 530.948 755.719 530.063C754.281 529.177 753.135 527.964 752.281 526.422C751.427 524.88 751 523.136 751 521.188C751 519.354 751.396 517.662 752.188 516.11C752.99 514.557 754.104 513.318 755.531 512.391C756.969 511.453 758.646 510.99 760.563 511ZM760.563 512.813C759.094 512.813 757.781 513.188 756.625 513.938C755.479 514.688 754.573 515.698 753.906 516.969C753.25 518.24 752.922 519.646 752.922 521.188C752.922 522.761 753.26 524.182 753.937 525.453C754.625 526.714 755.552 527.719 756.719 528.469C757.896 529.209 759.219 529.578 760.688 529.578C761.833 529.578 762.896 529.349 763.875 528.891C764.854 528.422 765.693 527.781 766.391 526.969C767.099 526.146 767.62 525.214 767.953 524.172C768.286 523.12 768.37 522.021 768.203 520.875C767.974 519.209 767.505 517.776 766.797 516.578C766.099 515.37 765.214 514.443 764.141 513.797C763.078 513.141 761.885 512.813 760.563 512.813Z" fill="#505050"/>
<circle cx="843" cy="528" r="38" fill="#EFF3FF"/>
<line x1="836.354" y1="521.646" x2="849.354" y2="534.646" stroke="#BBCCEE"/>
<line y1="-0.5" x2="18.3848" y2="-0.5" transform="matrix(0.707107 -0.707107 -0.707107 -0.707107 836 534)" stroke="#BBCCEE"/>
<circle cx="597" cy="446" r="38" fill="#EEF3FE"/>
<path d="M607 441.62H605.385C605.216 440.829 604.901 440.065 604.438 439.327C603.975 438.582 603.378 437.913 602.646 437.319C601.922 436.719 601.081 436.243 600.122 435.894C599.163 435.544 598.103 435.369 596.942 435.369C595.242 435.369 593.677 435.779 592.247 436.601C590.825 437.414 589.685 438.612 588.827 440.194C587.977 441.776 587.552 443.711 587.552 446C587.552 448.304 587.977 450.247 588.827 451.829C589.685 453.411 590.825 454.608 592.247 455.422C593.677 456.228 595.242 456.631 596.942 456.631C598.103 456.631 599.163 456.46 600.122 456.118C601.081 455.768 601.922 455.297 602.646 454.703C603.378 454.103 603.975 453.43 604.438 452.684C604.901 451.939 605.216 451.171 605.385 450.38H607C606.815 451.323 606.457 452.247 605.927 453.152C605.406 454.057 604.716 454.878 603.858 455.616C603.008 456.346 602.002 456.928 600.841 457.361C599.689 457.787 598.389 458 596.942 458C594.788 458 592.891 457.506 591.25 456.517C589.609 455.521 588.322 454.122 587.388 452.319C586.463 450.517 586 448.411 586 446C586 443.589 586.463 441.483 587.388 439.681C588.322 437.878 589.609 436.483 591.25 435.494C592.891 434.498 594.788 434 596.942 434C598.389 434 599.689 434.217 600.841 434.65C602.002 435.076 603.008 435.654 603.858 436.384C604.716 437.106 605.406 437.92 605.927 438.825C606.457 439.73 606.815 440.662 607 441.62Z" fill="#BBCCEE"/>
<circle cx="679" cy="446" r="38" fill="#EEF3FE"/>
<path d="M670.282 437.78C671.482 436.651 673.194 436 674.968 436H689.592C692.573 436 695 438.094 695 440.664V452.336C695 454.906 692.573 457 689.592 457H674.968C673.188 457 671.482 456.354 670.282 455.22L662.743 448.143C661.752 447.207 661.752 445.799 662.743 444.863L670.282 437.78ZM663.964 447.178L671.502 454.261C672.392 455.098 673.66 455.575 674.974 455.575H689.599C691.669 455.575 693.355 454.121 693.355 452.336V440.67C693.355 438.885 691.669 437.431 689.599 437.431H674.968C673.653 437.431 672.385 437.908 671.495 438.745L663.964 445.828C663.552 446.212 663.552 446.794 663.964 447.178Z" fill="#B7CAED"/>
<path d="M677.041 441.288C677.239 441.096 677.495 441 677.759 441C678.022 441 678.278 441.096 678.476 441.288L682.419 445.115L686.362 441.288C686.56 441.096 686.816 441 687.08 441C687.344 441 687.6 441.096 687.798 441.288C688.194 441.672 688.194 442.289 687.798 442.673L683.846 446.5L687.79 450.327C688.186 450.711 688.186 451.328 687.79 451.712C687.394 452.096 686.758 452.096 686.362 451.712L682.419 447.885L678.476 451.712C678.08 452.096 677.445 452.096 677.049 451.712C676.653 451.328 676.653 450.711 677.049 450.327L680.992 446.5L677.049 442.673C676.653 442.289 676.653 441.673 677.041 441.288Z" fill="#B7CAED"/>
<circle cx="761" cy="446" r="38" fill="#EEF3FE"/>
<path d="M763.449 455.24V454.113C763.449 453.001 763.671 452.012 764.115 451.147C764.559 450.282 765.175 449.603 765.965 449.108C766.764 448.605 767.686 448.353 768.732 448.353C769.788 448.353 770.71 448.605 771.499 449.108C772.288 449.603 772.9 450.282 773.334 451.147C773.778 452.012 774 453.001 774 454.113V455.24C774 456.352 773.778 457.345 773.334 458.22C772.9 459.085 772.283 459.764 771.484 460.259C770.695 460.753 769.778 461 768.732 461C767.686 461 766.764 460.753 765.965 460.259C765.175 459.764 764.559 459.085 764.115 458.22C763.671 457.345 763.449 456.352 763.449 455.24ZM765.092 454.113V455.24C765.092 456.504 765.422 457.545 766.083 458.362C766.744 459.17 767.627 459.574 768.732 459.574C769.837 459.574 770.72 459.17 771.381 458.362C772.042 457.545 772.372 456.504 772.372 455.24V454.113C772.372 452.849 772.042 451.813 771.381 451.005C770.73 450.187 769.847 449.779 768.732 449.779C767.637 449.779 766.754 450.187 766.083 451.005C765.422 451.813 765.092 452.849 765.092 454.113ZM748 437.887V436.76C748 435.648 748.222 434.66 748.666 433.795C749.11 432.92 749.726 432.236 750.516 431.741C751.315 431.247 752.237 431 753.283 431C754.338 431 755.261 431.247 756.05 431.741C756.839 432.236 757.451 432.92 757.885 433.795C758.329 434.66 758.551 435.648 758.551 436.76V437.887C758.551 438.99 758.329 439.978 757.885 440.853C757.451 441.718 756.834 442.402 756.035 442.906C755.246 443.4 754.329 443.647 753.283 443.647C752.237 443.647 751.315 443.4 750.516 442.906C749.726 442.402 749.11 441.718 748.666 440.853C748.222 439.978 748 438.99 748 437.887ZM749.643 436.76V437.887C749.643 439.151 749.973 440.192 750.634 441.01C751.295 441.817 752.178 442.221 753.283 442.221C754.388 442.221 755.271 441.817 755.932 441.01C756.593 440.192 756.923 439.151 756.923 437.887V436.76C756.923 435.496 756.593 434.46 755.932 433.652C755.281 432.835 754.398 432.426 753.283 432.426C752.188 432.426 751.305 432.835 750.634 433.652C749.973 434.46 749.643 435.496 749.643 436.76ZM749.598 460.601L770.389 431.399H772.269L751.478 460.601H749.598Z" fill="#BBCCEE"/>
<circle cx="843" cy="446" r="38" fill="#EEF3FE"/>
<rect x="832" y="445" width="22" height="2" fill="#BBCCEE"/>
<circle cx="843" cy="437" r="2" fill="#BBCCEE"/>
<circle cx="843" cy="455" r="2" fill="#BBCCEE"/>
<path d="M556 358C556 375.673 570.327 390 588 390H852C869.673 390 884 375.673 884 358V325H556V358Z" fill="#D9D9D9"/>
<path d="M556 122C556 104.327 570.327 90 588 90H852C869.673 90 884 104.327 884 122V325H556V122Z" fill="#D9D9D9"/>
<rect x="556" y="90" width="328" height="300" rx="32" fill="white"/>
<rect x="556" y="90" width="328" height="300" rx="32" fill="url(#paint0_linear_2_2)" fill-opacity="0.2"/>
<path d="M754.869 333.315V328.56H781.994V333.315H754.869ZM754.869 346.349V341.594H781.994V346.349H754.869ZM806.652 314.293C808.501 314.307 810.351 314.66 812.2 315.349C814.05 316.039 815.738 317.184 817.264 318.784C818.791 320.369 820.016 322.534 820.941 325.279C821.866 328.024 822.328 331.466 822.328 335.605C822.328 339.612 821.946 343.172 821.183 346.283C820.435 349.38 819.348 351.993 817.925 354.121C816.516 356.25 814.798 357.864 812.773 358.965C810.762 360.066 808.487 360.616 805.947 360.616C803.423 360.616 801.17 360.117 799.188 359.119C797.221 358.107 795.607 356.705 794.344 354.914C793.097 353.109 792.297 351.017 791.944 348.639H797.317C797.801 350.709 798.762 352.419 800.201 353.769C801.654 355.105 803.569 355.773 805.947 355.773C809.426 355.773 812.171 354.254 814.182 351.215C816.207 348.177 817.22 343.884 817.22 338.335H816.868C816.046 339.568 815.07 340.632 813.94 341.528C812.809 342.423 811.554 343.113 810.175 343.597C808.795 344.082 807.327 344.324 805.771 344.324C803.188 344.324 800.817 343.685 798.66 342.408C796.517 341.117 794.799 339.348 793.508 337.102C792.231 334.842 791.592 332.259 791.592 329.352C791.592 326.593 792.209 324.068 793.442 321.778C794.689 319.474 796.436 317.639 798.682 316.274C800.942 314.909 803.599 314.249 806.652 314.293ZM806.652 319.136C804.802 319.136 803.136 319.599 801.654 320.523C800.186 321.433 799.019 322.666 798.153 324.222C797.302 325.763 796.876 327.473 796.876 329.352C796.876 331.231 797.287 332.941 798.109 334.482C798.946 336.009 800.083 337.227 801.522 338.137C802.975 339.032 804.626 339.48 806.476 339.48C807.87 339.48 809.169 339.209 810.373 338.665C811.576 338.108 812.626 337.352 813.521 336.398C814.431 335.429 815.143 334.335 815.657 333.117C816.171 331.884 816.427 330.6 816.427 329.264C816.427 327.503 816.002 325.852 815.15 324.31C814.314 322.769 813.154 321.522 811.672 320.567C810.204 319.613 808.531 319.136 806.652 319.136ZM844.454 360.616C841.136 360.616 838.311 359.714 835.977 357.908C833.643 356.088 831.86 353.454 830.627 350.004C829.394 346.54 828.777 342.357 828.777 337.455C828.777 332.581 829.394 328.42 830.627 324.971C831.875 321.507 833.665 318.865 835.999 317.045C838.348 315.21 841.166 314.293 844.454 314.293C847.741 314.293 850.552 315.21 852.886 317.045C855.235 318.865 857.025 321.507 858.258 324.971C859.506 328.42 860.13 332.581 860.13 337.455C860.13 342.357 859.513 346.54 858.28 350.004C857.047 353.454 855.264 356.088 852.93 357.908C850.596 359.714 847.771 360.616 844.454 360.616ZM844.454 355.773C847.741 355.773 850.295 354.187 852.116 351.017C853.936 347.847 854.846 343.326 854.846 337.455C854.846 333.55 854.427 330.226 853.591 327.481C852.769 324.736 851.58 322.644 850.024 321.206C848.483 319.768 846.626 319.048 844.454 319.048C841.195 319.048 838.648 320.656 836.814 323.87C834.979 327.07 834.062 331.598 834.062 337.455C834.062 341.359 834.473 344.676 835.294 347.406C836.116 350.136 837.298 352.213 838.839 353.637C840.395 355.061 842.267 355.773 844.454 355.773Z" fill="#B0C9F5"/>
<path d="M731.591 259.727V283H728.773V262.682H728.636L722.955 266.455V263.591L728.773 259.727H731.591ZM743.451 283.318C742.497 283.303 741.542 283.121 740.588 282.773C739.633 282.424 738.762 281.837 737.974 281.011C737.186 280.178 736.554 279.053 736.076 277.636C735.599 276.212 735.36 274.424 735.36 272.273C735.36 270.212 735.554 268.386 735.94 266.795C736.326 265.197 736.887 263.852 737.622 262.761C738.357 261.663 739.243 260.83 740.281 260.261C741.326 259.693 742.504 259.409 743.815 259.409C745.118 259.409 746.277 259.67 747.292 260.193C748.315 260.708 749.148 261.428 749.792 262.352C750.436 263.277 750.853 264.341 751.042 265.545H748.27C748.012 264.5 747.512 263.633 746.77 262.943C746.027 262.254 745.042 261.909 743.815 261.909C742.012 261.909 740.592 262.693 739.554 264.261C738.523 265.83 738.004 268.03 737.997 270.864H738.179C738.603 270.22 739.107 269.67 739.69 269.216C740.281 268.754 740.932 268.398 741.645 268.148C742.357 267.898 743.11 267.773 743.906 267.773C745.239 267.773 746.459 268.106 747.565 268.773C748.671 269.432 749.557 270.345 750.224 271.511C750.891 272.67 751.224 274 751.224 275.5C751.224 276.939 750.902 278.258 750.258 279.455C749.614 280.644 748.709 281.591 747.542 282.295C746.383 282.992 745.02 283.333 743.451 283.318ZM743.451 280.818C744.406 280.818 745.262 280.58 746.02 280.102C746.785 279.625 747.387 278.985 747.826 278.182C748.273 277.379 748.497 276.485 748.497 275.5C748.497 274.538 748.281 273.663 747.849 272.875C747.425 272.08 746.838 271.447 746.088 270.977C745.345 270.508 744.497 270.273 743.542 270.273C742.823 270.273 742.152 270.417 741.531 270.705C740.91 270.985 740.364 271.371 739.895 271.864C739.432 272.356 739.069 272.92 738.804 273.557C738.538 274.186 738.406 274.848 738.406 275.545C738.406 276.47 738.622 277.333 739.054 278.136C739.493 278.939 740.092 279.587 740.849 280.08C741.614 280.572 742.482 280.818 743.451 280.818ZM766.436 278.909V263.909H768.982V278.909H766.436ZM760.209 272.682V270.136H775.209V272.682H760.209ZM785.274 283L795.683 262.409V262.227H783.683V259.727H798.592V262.364L788.228 283H785.274ZM813.571 278.909V263.909H816.117V278.909H813.571ZM807.344 272.682V270.136H822.344V272.682H807.344ZM839.409 283.318C838.454 283.303 837.5 283.121 836.545 282.773C835.591 282.424 834.719 281.837 833.932 281.011C833.144 280.178 832.511 279.053 832.034 277.636C831.557 276.212 831.318 274.424 831.318 272.273C831.318 270.212 831.511 268.386 831.897 266.795C832.284 265.197 832.844 263.852 833.579 262.761C834.314 261.663 835.201 260.83 836.238 260.261C837.284 259.693 838.462 259.409 839.772 259.409C841.076 259.409 842.235 259.67 843.25 260.193C844.272 260.708 845.106 261.428 845.75 262.352C846.394 263.277 846.81 264.341 847 265.545H844.227C843.969 264.5 843.469 263.633 842.727 262.943C841.985 262.254 841 261.909 839.772 261.909C837.969 261.909 836.549 262.693 835.511 264.261C834.481 265.83 833.962 268.03 833.954 270.864H834.136C834.56 270.22 835.064 269.67 835.647 269.216C836.238 268.754 836.89 268.398 837.602 268.148C838.314 267.898 839.068 267.773 839.863 267.773C841.197 267.773 842.416 268.106 843.522 268.773C844.629 269.432 845.515 270.345 846.182 271.511C846.848 272.67 847.182 274 847.182 275.5C847.182 276.939 846.86 278.258 846.216 279.455C845.572 280.644 844.666 281.591 843.5 282.295C842.341 282.992 840.977 283.333 839.409 283.318ZM839.409 280.818C840.363 280.818 841.219 280.58 841.977 280.102C842.742 279.625 843.344 278.985 843.784 278.182C844.231 277.379 844.454 276.485 844.454 275.5C844.454 274.538 844.238 273.663 843.807 272.875C843.382 272.08 842.795 271.447 842.045 270.977C841.303 270.508 840.454 270.273 839.5 270.273C838.78 270.273 838.11 270.417 837.488 270.705C836.867 270.985 836.322 271.371 835.852 271.864C835.39 272.356 835.026 272.92 834.761 273.557C834.496 274.186 834.363 274.848 834.363 275.545C834.363 276.47 834.579 277.333 835.011 278.136C835.451 278.939 836.049 279.587 836.807 280.08C837.572 280.572 838.439 280.818 839.409 280.818ZM849.818 283L860.227 262.409V262.227H848.227V259.727H863.136V262.364L852.772 283H849.818Z" fill="#B0C9F5"/>
<defs>
<filter id="filter0_i_2_2" x="641" y="736" width="76" height="80" filterUnits="userSpaceOnUse" color-interpolation-filters="sRGB">
<feFlood flood-opacity="0" result="BackgroundImageFix"/>
<feBlend mode="normal" in="SourceGraphic" in2="BackgroundImageFix" result="shape"/>
<feColorMatrix in="SourceAlpha" type="matrix" values="0 0 0 0 0 0 0 0 0 0 0 0 0 0 0 0 0 0 127 0" result="hardAlpha"/>
<feOffset dy="4"/>
<feGaussianBlur stdDeviation="2"/>
<feComposite in2="hardAlpha" operator="arithmetic" k2="-1" k3="1"/>
<feColorMatrix type="matrix" values="0 0 0 0 0 0 0 0 0 0 0 0 0 0 0 0 0 0 0.08 0"/>
<feBlend mode="normal" in2="shape" result="effect1_innerShadow_2_2"/>
</filter>
<filter id="filter1_i_2_2" x="723" y="736" width="76" height="80" filterUnits="userSpaceOnUse" color-interpolation-filters="sRGB">
<feFlood flood-opacity="0" result="BackgroundImageFix"/>
<feBlend mode="normal" in="SourceGraphic" in2="BackgroundImageFix" result="shape"/>
<feColorMatrix in="SourceAlpha" type="matrix" values="0 0 0 0 0 0 0 0 0 0 0 0 0 0 0 0 0 0 127 0" result="hardAlpha"/>
<feOffset dy="4"/>
<feGaussianBlur stdDeviation="2"/>
<feComposite in2="hardAlpha" operator="arithmetic" k2="-1" k3="1"/>
<feColorMatrix type="matrix" values="0 0 0 0 0 0 0 0 0 0 0 0 0 0 0 0 0 0 0.08 0"/>
<feBlend mode="normal" in2="shape" result="effect1_innerShadow_2_2"/>
</filter>
<filter id="filter2_i_2_2" x="559" y="654" width="76" height="80" filterUnits="userSpaceOnUse" color-interpolation-filters="sRGB">
<feFlood flood-opacity="0" result="BackgroundImageFix"/>
<feBlend mode="normal" in="SourceGraphic" in2="BackgroundImageFix" result="shape"/>
<feColorMatrix in="SourceAlpha" type="matrix" values="0 0 0 0 0 0 0 0 0 0 0 0 0 0 0 0 0 0 127 0" result="hardAlpha"/>
<feOffset dy="4"/>
<feGaussianBlur stdDeviation="2"/>
<feComposite in2="hardAlpha" operator="arithmetic" k2="-1" k3="1"/>
<feColorMatrix type="matrix" values="0 0 0 0 0 0 0 0 0 0 0 0 0 0 0 0 0 0 0.08 0"/>
<feBlend mode="normal" in2="shape" result="effect1_innerShadow_2_2"/>
</filter>
<filter id="filter3_i_2_2" x="641" y="654" width="76" height="80" filterUnits="userSpaceOnUse" color-interpolation-filters="sRGB">
<feFlood flood-opacity="0" result="BackgroundImageFix"/>
<feBlend mode="normal" in="SourceGraphic" in2="BackgroundImageFix" result="shape"/>
<feColorMatrix in="SourceAlpha" type="matrix" values="0 0 0 0 0 0 0 0 0 0 0 0 0 0 0 0 0 0 127 0" result="hardAlpha"/>
<feOffset dy="4"/>
<feGaussianBlur stdDeviation="2"/>
<feComposite in2="hardAlpha" operator="arithmetic" k2="-1" k3="1"/>
<feColorMatrix type="matrix" values="0 0 0 0 0 0 0 0 0 0 0 0 0 0 0 0 0 0 0.08 0"/>
<feBlend mode="normal" in2="shape" result="effect1_innerShadow_2_2"/>
</filter>
<filter id="filter4_i_2_2" x="723" y="654" width="76" height="80" filterUnits="userSpaceOnUse" color-interpolation-filters="sRGB">
<feFlood flood-opacity="0" result="BackgroundImageFix"/>
<feBlend mode="normal" in="SourceGraphic" in2="BackgroundImageFix" result="shape"/>
<feColorMatrix in="SourceAlpha" type="matrix" values="0 0 0 0 0 0 0 0 0 0 0 0 0 0 0 0 0 0 127 0" result="hardAlpha"/>
<feOffset dy="4"/>
<feGaussianBlur stdDeviation="2"/>
<feComposite in2="hardAlpha" operator="arithmetic" k2="-1" k3="1"/>
<feColorMatrix type="matrix" values="0 0 0 0 0 0 0 0 0 0 0 0 0 0 0 0 0 0 0.08 0"/>
<feBlend mode="normal" in2="shape" result="effect1_innerShadow_2_2"/>
</filter>
<filter id="filter5_i_2_2" x="559" y="572" width="76" height="80" filterUnits="userSpaceOnUse" color-interpolation-filters="sRGB">
<feFlood flood-opacity="0" result="BackgroundImageFix"/>
<feBlend mode="normal" in="SourceGraphic" in2="BackgroundImageFix" result="shape"/>
<feColorMatrix in="SourceAlpha" type="matrix" values="0 0 0 0 0 0 0 0 0 0 0 0 0 0 0 0 0 0 127 0" result="hardAlpha"/>
<feOffset dy="4"/>
<feGaussianBlur stdDeviation="2"/>
<feComposite in2="hardAlpha" operator="arithmetic" k2="-1" k3="1"/>
<feColorMatrix type="matrix" values="0 0 0 0 0 0 0 0 0 0 0 0 0 0 0 0 0 0 0.08 0"/>
<feBlend mode="normal" in2="shape" result="effect1_innerShadow_2_2"/>
</filter>
<filter id="filter6_i_2_2" x="641" y="572" width="76" height="80" filterUnits="userSpaceOnUse" color-interpolation-filters="sRGB">
<feFlood flood-opacity="0" result="BackgroundImageFix"/>
<feBlend mode="normal" in="SourceGraphic" in2="BackgroundImageFix" result="shape"/>
<feColorMatrix in="SourceAlpha" type="matrix" values="0 0 0 0 0 0 0 0 0 0 0 0 0 0 0 0 0 0 127 0" result="hardAlpha"/>
<feOffset dy="4"/>
<feGaussianBlur stdDeviation="2"/>
<feComposite in2="hardAlpha" operator="arithmetic" k2="-1" k3="1"/>
<feColorMatrix type="matrix" values="0 0 0 0 0 0 0 0 0 0 0 0 0 0 0 0 0 0 0.08 0"/>
<feBlend mode="normal" in2="shape" result="effect1_innerShadow_2_2"/>
</filter>
<filter id="filter7_i_2_2" x="723" y="572" width="76" height="80" filterUnits="userSpaceOnUse" color-interpolation-filters="sRGB">
<feFlood flood-opacity="0" result="BackgroundImageFix"/>
<feBlend mode="normal" in="SourceGraphic" in2="BackgroundImageFix" result="shape"/>
<feColorMatrix in="SourceAlpha" type="matrix" values="0 0 0 0 0 0 0 0 0 0 0 0 0 0 0 0 0 0 127 0" result="hardAlpha"/>
<feOffset dy="4"/>
<feGaussianBlur stdDeviation="2"/>
<feComposite in2="hardAlpha" operator="arithmetic" k2="-1" k3="1"/>
<feColorMatrix type="matrix" values="0 0 0 0 0 0 0 0 0 0 0 0 0 0 0 0 0 0 0.08 0"/>
<feBlend mode="normal" in2="shape" result="effect1_innerShadow_2_2"/>
</filter>
<filter id="filter8_i_2_2" x="559" y="490" width="76" height="80" filterUnits="userSpaceOnUse" color-interpolation-filters="sRGB">
<feFlood flood-opacity="0" result="BackgroundImageFix"/>
<feBlend mode="normal" in="SourceGraphic" in2="BackgroundImageFix" result="shape"/>
<feColorMatrix in="SourceAlpha" type="matrix" values="0 0 0 0 0 0 0 0 0 0 0 0 0 0 0 0 0 0 127 0" result="hardAlpha"/>
<feOffset dy="4"/>
<feGaussianBlur stdDeviation="2"/>
<feComposite in2="hardAlpha" operator="arithmetic" k2="-1" k3="1"/>
<feColorMatrix type="matrix" values="0 0 0 0 0 0 0 0 0 0 0 0 0 0 0 0 0 0 0.08 0"/>
<feBlend mode="normal" in2="shape" result="effect1_innerShadow_2_2"/>
</filter>
<filter id="filter9_i_2_2" x="641" y="490" width="76" height="80" filterUnits="userSpaceOnUse" color-interpolation-filters="sRGB">
<feFlood flood-opacity="0" result="BackgroundImageFix"/>
<feBlend mode="normal" in="SourceGraphic" in2="BackgroundImageFix" result="shape"/>
<feColorMatrix in="SourceAlpha" type="matrix" values="0 0 0 0 0 0 0 0 0 0 0 0 0 0 0 0 0 0 127 0" result="hardAlpha"/>
<feOffset dy="4"/>
<feGaussianBlur stdDeviation="2"/>
<feComposite in2="hardAlpha" operator="arithmetic" k2="-1" k3="1"/>
<feColorMatrix type="matrix" values="0 0 0 0 0 0 0 0 0 0 0 0 0 0 0 0 0 0 0.08 0"/>
<feBlend mode="normal" in2="shape" result="effect1_innerShadow_2_2"/>
</filter>
<filter id="filter10_i_2_2" x="723" y="490" width="76" height="80" filterUnits="userSpaceOnUse" color-interpolation-filters="sRGB">
<feFlood flood-opacity="0" result="BackgroundImageFix"/>
<feBlend mode="normal" in="SourceGraphic" in2="BackgroundImageFix" result="shape"/>
<feColorMatrix in="SourceAlpha" type="matrix" values="0 0 0 0 0 0 0 0 0 0 0 0 0 0 0 0 0 0 127 0" result="hardAlpha"/>
<feOffset dy="4"/>
<feGaussianBlur stdDeviation="2"/>
<feComposite in2="hardAlpha" operator="arithmetic" k2="-1" k3="1"/>
<feColorMatrix type="matrix" values="0 0 0 0 0 0 0 0 0 0 0 0 0 0 0 0 0 0 0.08 0"/>
<feBlend mode="normal" in2="shape" result="effect1_innerShadow_2_2"/>
</filter>
<linearGradient id="paint0_linear_2_2" x1="720" y1="508" x2="720" y2="302" gradientUnits="userSpaceOnUse">
<stop stop-color="#BBC3FF"/>
<stop offset="0.0408367" stop-color="#C8CEFE" stop-opacity="0.58"/>
<stop offset="1" stop-color="white"/>
</linearGradient>
</defs>
</svg>
