<svg width="21" height="33" viewBox="0 0 21 33" fill="none" xmlns="http://www.w3.org/2000/svg">
<path d="M10.25 32.875C8.11458 32.875 6.28125 32.2188 4.75 30.9063C3.21875 29.5938 2.04167 27.7135 1.21875 25.2656C0.40625 22.8073 0 19.8646 0 16.4375C0 13.0208 0.411458 10.0833 1.23438 7.625C2.05729 5.16667 3.22917 3.28125 4.75 1.96875C6.28125 0.65625 8.11458 0 10.25 0C12.3854 0 14.2135 0.65625 15.7344 1.96875C17.2656 3.28125 18.4427 5.16667 19.2656 7.625C20.0885 10.0833 20.5 13.0208 20.5 16.4375C20.5 19.8646 20.0885 22.8073 19.2656 25.2656C18.4531 27.7135 17.2813 29.5938 15.75 30.9063C14.2187 32.2188 12.3854 32.875 10.25 32.875ZM10.25 31.0625C12.8437 31.0625 14.8802 29.776 16.3594 27.2031C17.8385 24.6198 18.5781 21.0313 18.5781 16.4375C18.5781 13.375 18.2396 10.75 17.5625 8.5625C16.8958 6.375 15.9427 4.70313 14.7031 3.54688C13.4635 2.38021 11.9792 1.79687 10.25 1.79687C7.65625 1.79687 5.61979 3.08854 4.14062 5.67188C2.66146 8.25521 1.92188 11.8437 1.92188 16.4375C1.92188 19.5 2.25521 22.125 2.92188 24.3125C3.58854 26.4896 4.54167 28.1615 5.78125 29.3281C7.03125 30.4844 8.52083 31.0625 10.25 31.0625Z" fill="#373737"/>
</svg>
