<svg width="20" height="33" viewBox="0 0 20 33" fill="none" xmlns="http://www.w3.org/2000/svg">
<path d="M0 32.4375V30.9531L10.3594 19.0156C11.8385 17.3073 13.0104 15.8594 13.875 14.6719C14.7396 13.4844 15.3594 12.4115 15.7344 11.4531C16.1094 10.4948 16.2969 9.49479 16.2969 8.45313C16.2969 7.15104 15.9896 6 15.375 5C14.7708 3.98958 13.9427 3.20313 12.8906 2.64062C11.849 2.07812 10.6615 1.79687 9.32812 1.79687C7.93229 1.79687 6.70833 2.10417 5.65625 2.71875C4.60417 3.33333 3.78125 4.16667 3.1875 5.21875C2.60417 6.27083 2.3125 7.45313 2.3125 8.76562H0.421875C0.421875 7.10938 0.807292 5.61979 1.57813 4.29688C2.34896 2.97396 3.40625 1.92708 4.75 1.15625C6.10417 0.385417 7.64583 0 9.375 0C11.0729 0 12.5833 0.369792 13.9063 1.10937C15.2292 1.84896 16.2708 2.85937 17.0312 4.14063C17.7917 5.41146 18.1719 6.84896 18.1719 8.45313C18.1719 9.63021 17.9688 10.7656 17.5625 11.8594C17.1667 12.9427 16.4844 14.1563 15.5156 15.5C14.5469 16.8333 13.2083 18.4792 11.5 20.4375L2.8125 30.4531V30.625H19.6094V32.4375H0Z" fill="#373737"/>
</svg>
