<svg width="20" height="33" viewBox="0 0 20 33" fill="none" xmlns="http://www.w3.org/2000/svg">
<path d="M9.96875 32.875C8.07292 32.875 6.38021 32.5156 4.89063 31.7969C3.40104 31.0677 2.21875 30.0729 1.34375 28.8125C0.479167 27.5417 0.0312501 26.0833 0 24.4375H1.98438C2.01563 25.7396 2.38542 26.8906 3.09375 27.8906C3.80208 28.8802 4.75 29.6563 5.9375 30.2188C7.13542 30.7813 8.46875 31.0625 9.9375 31.0625C11.5312 31.0625 12.9271 30.75 14.125 30.125C15.3333 29.5 16.276 28.6563 16.9531 27.5938C17.6302 26.5208 17.9688 25.3229 17.9688 24C17.9688 22.5833 17.599 21.3438 16.8594 20.2813C16.1198 19.2083 15.0885 18.375 13.7656 17.7813C12.4427 17.1771 10.9063 16.875 9.15625 16.875H7.96875V15.0625H9.15625C10.6458 15.0625 11.9792 14.7917 13.1562 14.25C14.3333 13.6979 15.2604 12.9219 15.9375 11.9219C16.625 10.9219 16.9688 9.73958 16.9688 8.375C16.9688 7.09375 16.6719 5.95833 16.0781 4.96875C15.4844 3.97917 14.6615 3.20313 13.6094 2.64062C12.5677 2.07812 11.3438 1.79687 9.9375 1.79687C8.58333 1.79687 7.35417 2.07292 6.25 2.625C5.15625 3.17708 4.28646 3.95313 3.64063 4.95313C2.99479 5.95313 2.66667 7.11458 2.65625 8.4375H0.734375C0.755208 6.78125 1.17188 5.31771 1.98438 4.04688C2.80729 2.77604 3.90625 1.78646 5.28125 1.07813C6.66667 0.359375 8.22917 0 9.96875 0C11.7396 0 13.2917 0.369792 14.625 1.10937C15.9687 1.84896 17.0104 2.84896 17.75 4.10937C18.5 5.36979 18.875 6.77083 18.875 8.3125C18.875 10.1667 18.3594 11.7552 17.3281 13.0781C16.3073 14.3906 14.9219 15.3021 13.1719 15.8125V15.9844C15.2448 16.4427 16.8854 17.3854 18.0938 18.8125C19.3021 20.2396 19.9062 21.9688 19.9062 24C19.9062 25.6667 19.4792 27.1719 18.625 28.5156C17.7708 29.8594 16.5938 30.9219 15.0938 31.7031C13.6042 32.4844 11.8958 32.875 9.96875 32.875Z" fill="#373737"/>
</svg>
