<svg width="19" height="33" viewBox="0 0 19 33" fill="none" xmlns="http://www.w3.org/2000/svg">
<path d="M8.9375 32.4375C7.22917 32.4375 5.70313 32.0781 4.35938 31.3594C3.02604 30.6302 1.96875 29.6302 1.1875 28.3594C0.416667 27.0885 0.0208333 25.6354 0 24H1.92188C1.96354 25.9375 2.63542 27.526 3.9375 28.7656C5.23958 30.0052 6.90625 30.625 8.9375 30.625C10.5 30.625 11.875 30.25 13.0625 29.5C14.2604 28.7396 15.1979 27.7083 15.875 26.4062C16.5521 25.1042 16.8854 23.6354 16.875 22C16.875 20.2708 16.5104 18.7604 15.7813 17.4688C15.0521 16.1771 14.0781 15.1771 12.8594 14.4688C11.6406 13.7604 10.2917 13.401 8.8125 13.3906C7.64583 13.3906 6.55208 13.6042 5.53125 14.0313C4.51042 14.4479 3.64063 14.9844 2.92188 15.6406L0.71875 15.3281L2.60938 0H17.6094V1.8125H4.28125L2.8125 13.7969H2.96875C3.71875 13.1302 4.60938 12.5938 5.64062 12.1875C6.68229 11.7708 7.8125 11.5625 9.03125 11.5625C10.8229 11.5625 12.4583 12 13.9375 12.875C15.4271 13.75 16.6094 14.9687 17.4844 16.5312C18.3698 18.0937 18.8073 19.9115 18.7969 21.9844C18.7865 23.9844 18.3594 25.7708 17.5156 27.3438C16.6719 28.9167 15.5052 30.1615 14.0156 31.0781C12.5365 31.9844 10.8438 32.4375 8.9375 32.4375Z" fill="#373737"/>
</svg>
