<svg width="20" height="33" viewBox="0 0 20 33" fill="none" xmlns="http://www.w3.org/2000/svg">
<path d="M10.0469 32.875C8.70313 32.8646 7.42708 32.5781 6.21875 32.0156C5.01042 31.4427 3.9375 30.5573 3 29.3594C2.07292 28.151 1.33854 26.599 0.796875 24.7031C0.265625 22.7969 0 20.5156 0 17.8594C0 15.474 0.1875 13.2083 0.5625 11.0625C0.947917 8.91667 1.55208 7.01563 2.375 5.35938C3.19792 3.69271 4.27083 2.38542 5.59375 1.4375C6.92708 0.479166 8.53646 0 10.4219 0C12.0677 0 13.5156 0.359375 14.7656 1.07813C16.026 1.78646 17.0313 2.77604 17.7813 4.04688C18.5313 5.30729 18.9844 6.77083 19.1406 8.4375H17.2031C16.9844 6.48958 16.2865 4.90104 15.1094 3.67187C13.9427 2.43229 12.3802 1.8125 10.4219 1.8125C7.65104 1.8125 5.53125 3.16667 4.0625 5.875C2.60417 8.58333 1.875 12.4583 1.875 17.5H2.04688C2.46354 16.5 3.07813 15.6198 3.89062 14.8594C4.71354 14.0885 5.66146 13.4896 6.73438 13.0625C7.80729 12.6354 8.9375 12.4219 10.125 12.4219C11.8542 12.4219 13.4323 12.8646 14.8594 13.75C16.2969 14.6354 17.4479 15.849 18.3125 17.3906C19.1771 18.9323 19.6094 20.6771 19.6094 22.625C19.6094 24.4688 19.2083 26.1719 18.4062 27.7344C17.6042 29.2865 16.4844 30.5365 15.0469 31.4844C13.6198 32.4219 11.9531 32.8854 10.0469 32.875ZM10.0469 31.0625C11.5052 31.0625 12.8073 30.6823 13.9531 29.9219C15.1094 29.1615 16.0208 28.1458 16.6875 26.875C17.3542 25.5938 17.6875 24.1771 17.6875 22.625C17.6875 21.0625 17.3438 19.6458 16.6562 18.375C15.9688 17.1042 15.0365 16.099 13.8594 15.3594C12.6927 14.6094 11.3802 14.2344 9.92188 14.2344C8.77604 14.2344 7.71354 14.4688 6.73438 14.9375C5.75521 15.3958 4.91146 16.0313 4.20313 16.8438C3.50521 17.6563 2.98958 18.5885 2.65625 19.6406C2.33333 20.6823 2.24479 21.7813 2.39063 22.9375C2.63021 24.6146 3.09896 26.0625 3.79687 27.2813C4.50521 28.4896 5.39062 29.4219 6.45312 30.0781C7.52604 30.7344 8.72396 31.0625 10.0469 31.0625Z" fill="#373737"/>
</svg>
