<svg width="21" height="33" viewBox="0 0 21 33" fill="none" xmlns="http://www.w3.org/2000/svg">
<path d="M10.2503 32.875C8.31278 32.875 6.56799 32.4896 5.01591 31.7188C3.46383 30.9375 2.23466 29.8854 1.32841 28.5625C0.432576 27.2396 -0.0101327 25.7552 0.000284096 24.1094C-0.0101327 22.8073 0.265909 21.5833 0.828409 20.4375C1.40133 19.2917 2.18258 18.3177 3.17216 17.5156C4.16174 16.7031 5.29195 16.1615 6.56278 15.8906V15.75C4.9482 15.2396 3.63049 14.2969 2.60966 12.9219C1.59924 11.5469 1.09403 9.98958 1.09403 8.25C1.09403 6.69792 1.49508 5.30208 2.29716 4.0625C3.10966 2.8125 4.20862 1.82292 5.59403 1.09375C6.97945 0.364583 8.53153 0 10.2503 0C11.9378 0 13.4742 0.364583 14.8597 1.09375C16.2451 1.8125 17.344 2.79688 18.1565 4.04688C18.9794 5.28646 19.3909 6.6875 19.3909 8.25C19.3909 9.97917 18.8857 11.5365 17.8753 12.9219C16.8753 14.2969 15.5628 15.2396 13.9378 15.75V15.8906C15.1982 16.151 16.318 16.6875 17.2972 17.5C18.2867 18.3021 19.0628 19.2812 19.6253 20.4375C20.1982 21.5833 20.4899 22.8073 20.5003 24.1094C20.4899 25.7552 20.0315 27.2396 19.1253 28.5625C18.2295 29.8854 17.0055 30.9375 15.4534 31.7188C13.9117 32.4896 12.1774 32.875 10.2503 32.875ZM10.2503 31.0625C11.844 31.0625 13.2659 30.75 14.5159 30.125C15.7659 29.5 16.7503 28.6563 17.469 27.5938C18.1878 26.5208 18.5524 25.3229 18.5628 24C18.5524 22.6563 18.1774 21.4375 17.4378 20.3438C16.7086 19.25 15.719 18.3802 14.469 17.7344C13.219 17.0885 11.8128 16.7656 10.2503 16.7656C8.67737 16.7656 7.2607 17.0885 6.00028 17.7344C4.75028 18.3802 3.75549 19.25 3.01591 20.3438C2.28674 21.4375 1.92737 22.6563 1.93778 24C1.92737 25.3229 2.28153 26.5208 3.00028 27.5938C3.72945 28.6563 4.71903 29.5 5.96903 30.125C7.22945 30.75 8.65653 31.0625 10.2503 31.0625ZM10.2503 15.0781C11.594 15.0781 12.8076 14.776 13.8909 14.1719C14.9847 13.5677 15.8545 12.7552 16.5003 11.7344C17.1461 10.7135 17.469 9.57812 17.469 8.32812C17.469 7.07813 17.1461 5.96354 16.5003 4.98438C15.8649 3.99479 15.0003 3.21875 13.9065 2.65625C12.8232 2.08333 11.6045 1.79687 10.2503 1.79687C8.8857 1.79687 7.65653 2.08333 6.56278 2.65625C5.46903 3.21875 4.60445 3.99479 3.96903 4.98438C3.33362 5.96354 3.01591 7.07813 3.01591 8.32812C3.01591 9.57812 3.33362 10.7135 3.96903 11.7344C4.61487 12.7552 5.48466 13.5677 6.57841 14.1719C7.67216 14.776 8.89612 15.0781 10.2503 15.0781Z" fill="#373737"/>
</svg>
