<svg width="20" height="33" viewBox="0 0 20 33" fill="none" xmlns="http://www.w3.org/2000/svg">
<path d="M9.5625 0.000171714C10.9063 0.000171714 12.1823 0.28663 13.3906 0.859547C14.599 1.43246 15.6667 2.31788 16.5938 3.5158C17.5312 4.7033 18.2656 6.24496 18.7969 8.1408C19.3385 10.0262 19.6094 12.297 19.6094 14.9533C19.6094 17.3387 19.4167 19.6095 19.0312 21.7658C18.6563 23.9116 18.0573 25.8231 17.2344 27.5002C16.4115 29.1668 15.3385 30.4793 14.0156 31.4377C12.6927 32.396 11.0833 32.8752 9.1875 32.8752C7.53125 32.8752 6.07813 32.5158 4.82812 31.797C3.57813 31.0783 2.57292 30.0835 1.8125 28.8127C1.0625 27.5314 0.609375 26.0523 0.453125 24.3752H2.39063C2.60938 26.3231 3.30729 27.9273 4.48438 29.1877C5.66146 30.4377 7.22917 31.0627 9.1875 31.0627C11.9479 31.0627 14.0625 29.7033 15.5313 26.9845C17 24.2658 17.7344 20.3752 17.7344 15.3127H17.5625C17.1458 16.3127 16.526 17.1981 15.7031 17.9689C14.8906 18.7293 13.9479 19.3231 12.875 19.7502C11.8021 20.1773 10.6719 20.3908 9.48438 20.3908C7.74479 20.3908 6.15625 19.9481 4.71875 19.0627C3.28125 18.1773 2.13542 16.9637 1.28125 15.422C0.427083 13.8804 0 12.1356 0 10.1877C0 8.35434 0.395833 6.66163 1.1875 5.10955C1.98958 3.55746 3.10417 2.31788 4.53125 1.3908C5.96875 0.453296 7.64583 -0.0102453 9.5625 0.000171714ZM9.5625 1.81267C8.09375 1.81267 6.78125 2.18767 5.625 2.93767C4.47917 3.68767 3.57292 4.69809 2.90625 5.96892C2.25 7.23976 1.92188 8.64601 1.92188 10.1877C1.92188 11.7606 2.26042 13.1825 2.9375 14.4533C3.625 15.7137 4.55208 16.7189 5.71875 17.4689C6.89583 18.2085 8.21875 18.5783 9.6875 18.5783C10.8333 18.5783 11.8958 18.3491 12.875 17.8908C13.8542 17.422 14.6927 16.7814 15.3906 15.9689C16.099 15.146 16.6198 14.2137 16.9531 13.172C17.2865 12.12 17.3698 11.021 17.2031 9.87517C16.974 8.2085 16.5052 6.77621 15.7969 5.5783C15.099 4.36996 14.2135 3.44288 13.1406 2.79705C12.0781 2.1408 10.8854 1.81267 9.5625 1.81267Z" fill="#373737"/>
</svg>
