<svg width="33" height="29" viewBox="0 0 33 29" fill="none" xmlns="http://www.w3.org/2000/svg">
<path d="M8.28161 5.77956C9.48179 4.65134 11.1944 4 12.9677 4H27.5924C30.5727 4 33 6.0936 33 8.66408V20.3359C33 22.9064 30.5727 25 27.5924 25H12.9677C11.1877 25 9.48179 24.3545 8.28161 23.2204L0.743372 16.1429C-0.247791 15.2066 -0.247791 13.7992 0.743372 12.8629L8.28161 5.77956ZM1.96378 15.1775L9.50202 22.2609C10.392 23.0983 11.6597 23.5752 12.9745 23.5752H27.5992C29.6692 23.5752 31.3548 22.1213 31.3548 20.3359V8.6699C31.3548 6.88452 29.6692 5.43063 27.5992 5.43063H12.9677C11.6529 5.43063 10.3853 5.9075 9.49527 6.74495L1.96378 13.8283C1.55249 14.2121 1.55249 14.7937 1.96378 15.1775Z" fill="#B7CAED"/>
<path d="M15.0408 9.28821C15.2388 9.09607 15.4945 9 15.7585 9C16.0225 9 16.2782 9.09607 16.4762 9.28821L20.4193 13.115L24.3625 9.28821C24.5605 9.09607 24.8162 9 25.0802 9C25.3441 9 25.5999 9.09607 25.7978 9.28821C26.1938 9.67249 26.1938 10.2889 25.7978 10.6732L21.8465 14.5L25.7896 18.3268C26.1856 18.7111 26.1856 19.3275 25.7896 19.7118C25.3936 20.0961 24.7584 20.0961 24.3625 19.7118L20.4193 15.885L16.4762 19.7118C16.0802 20.0961 15.445 20.0961 15.0491 19.7118C14.6531 19.3275 14.6531 18.7111 15.0491 18.3268L18.9922 14.5L15.0491 10.6732C14.6531 10.2889 14.6531 9.67257 15.0408 9.28821Z" fill="#B7CAED"/>
</svg>
