<svg width="26" height="30" viewBox="0 0 26 30" fill="none" xmlns="http://www.w3.org/2000/svg">
<path d="M15.4491 24.2395V23.1131C15.4491 22.001 15.671 21.0124 16.115 20.1473C16.5589 19.2823 17.1755 18.6027 17.9647 18.1084C18.7638 17.6046 19.6862 17.3527 20.7319 17.3527C21.7875 17.3527 22.7099 17.6046 23.4991 18.1084C24.2884 18.6027 24.9 19.2823 25.3341 20.1473C25.778 21.0124 26 22.001 26 23.1131V24.2395C26 25.3517 25.778 26.3451 25.3341 27.2196C24.9 28.0846 24.2834 28.7643 23.4843 29.2586C22.6951 29.7529 21.7777 30 20.7319 30C19.6862 30 18.7638 29.7529 17.9647 29.2586C17.1755 28.7643 16.5589 28.0846 16.115 27.2196C15.671 26.3451 15.4491 25.3517 15.4491 24.2395ZM17.0916 23.1131V24.2395C17.0916 25.5038 17.4221 26.5447 18.0831 27.3622C18.7441 28.1702 19.627 28.5741 20.7319 28.5741C21.8368 28.5741 22.7198 28.1702 23.3808 27.3622C24.0417 26.5447 24.3722 25.5038 24.3722 24.2395V23.1131C24.3722 21.8489 24.0417 20.8127 23.3808 20.0048C22.7297 19.1873 21.8467 18.7785 20.7319 18.7785C19.6369 18.7785 18.7539 19.1873 18.0831 20.0048C17.4221 20.8127 17.0916 21.8489 17.0916 23.1131ZM0 6.88688L0 5.76046C0 4.64829 0.221969 3.6597 0.665908 2.79468C1.10985 1.92015 1.72643 1.23574 2.51565 0.741446C3.31474 0.247149 4.23715 0 5.28287 0C6.33846 0 7.26086 0.247149 8.05009 0.741446C8.83931 1.23574 9.45096 1.92015 9.88503 2.79468C10.329 3.6597 10.5509 4.64829 10.5509 5.76046V6.88688C10.5509 7.98954 10.329 8.97814 9.88503 9.85266C9.45096 10.7177 8.83438 11.4021 8.03529 11.9059C7.24606 12.4002 6.32859 12.6473 5.28287 12.6473C4.23715 12.6473 3.31474 12.4002 2.51565 11.9059C1.72643 11.4021 1.10985 10.7177 0.665908 9.85266C0.221969 8.97814 0 7.98954 0 6.88688ZM1.64257 5.76046V6.88688C1.64257 8.15114 1.97306 9.19202 2.63404 10.0095C3.29501 10.8175 4.17795 11.2215 5.28287 11.2215C6.38778 11.2215 7.27073 10.8175 7.9317 10.0095C8.59268 9.19202 8.92316 8.15114 8.92316 6.88688V5.76046C8.92316 4.4962 8.59268 3.46008 7.9317 2.65209C7.28059 1.8346 6.39765 1.42586 5.28287 1.42586C4.18782 1.42586 3.30488 1.8346 2.63404 2.65209C1.97306 3.46008 1.64257 4.4962 1.64257 5.76046ZM1.59818 29.6008L22.3893 0.39924L24.2686 0.39924L3.47752 29.6008H1.59818Z" fill="#BBCCEE"/>
</svg>
