<svg width="21" height="24" viewBox="0 0 21 24" fill="none" xmlns="http://www.w3.org/2000/svg">
<path d="M21 7.61977H19.3846C19.2163 6.8289 18.9008 6.06464 18.4381 5.327C17.9754 4.58175 17.378 3.91255 16.646 3.31939C15.9225 2.71863 15.0811 2.24335 14.122 1.89354C13.1629 1.54373 12.1028 1.36882 10.9417 1.36882C9.24219 1.36882 7.67728 1.77947 6.24699 2.60076C4.82512 3.41445 3.6851 4.61217 2.82692 6.19392C1.97716 7.77567 1.55228 9.71103 1.55228 12C1.55228 14.3042 1.97716 16.2472 2.82692 17.8289C3.6851 19.4106 4.82512 20.6084 6.24699 21.4221C7.67728 22.2281 9.24219 22.6312 10.9417 22.6312C12.1028 22.6312 13.1629 22.4601 14.122 22.1179C15.0811 21.7681 15.9225 21.2966 16.646 20.7034C17.378 20.1027 17.9754 19.4297 18.4381 18.6844C18.9008 17.9392 19.2163 17.1711 19.3846 16.3802H21C20.8149 17.3232 20.4573 18.2471 19.9273 19.1521C19.4056 20.057 18.7157 20.8783 17.8576 21.616C17.0078 22.346 16.0024 22.9278 14.8413 23.3612C13.6887 23.7871 12.3888 24 10.9417 24C8.78786 24 6.89062 23.5057 5.25 22.5171C3.60937 21.5209 2.32212 20.1217 1.38822 18.3194C0.46274 16.5171 0 14.4106 0 12C0 9.58935 0.46274 7.48289 1.38822 5.68061C2.32212 3.87833 3.60937 2.48289 5.25 1.4943C6.89062 0.498099 8.78786 0 10.9417 0C12.3888 0 13.6887 0.21673 14.8413 0.650191C16.0024 1.07605 17.0078 1.65399 17.8576 2.38403C18.7157 3.10646 19.4056 3.92015 19.9273 4.8251C20.4573 5.73004 20.8149 6.6616 21 7.61977Z" fill="#BBCCEE"/>
</svg>
